<svg xmlns="http://www.w3.org/2000/svg" width="64" height="64" viewBox="0 0 64 64"><defs><linearGradient id="gold" x1="0%" x2="0%" y1="0%" y2="100%"><stop offset="0%" style="stop-color:#f5c542;stop-opacity:1"/><stop offset="100%" style="stop-color:#d4961c;stop-opacity:1"/></linearGradient></defs><rect width="4" height="46" x="30" y="10" fill="url(#gold)" rx="2"/><path fill="#F5C542" d="M30 18 C24 14, 14 14, 10 18 C14 16, 22 16, 28 20" opacity=".9"/><path fill="#D4961C" d="M30 22 C26 19, 18 19, 14 22 C18 20, 24 20, 28 24" opacity=".8"/><path fill="#F5C542" d="M34 18 C40 14, 50 14, 54 18 C50 16, 42 16, 36 20" opacity=".9"/><path fill="#D4961C" d="M34 22 C38 19, 46 19, 50 22 C46 20, 40 20, 36 24" opacity=".8"/><path fill="none" stroke="#F5C542" stroke-linecap="round" stroke-width="2.5" d="M32 48 C22 44, 20 38, 26 34 C20 36, 18 42, 24 46 C18 40, 22 30, 30 28 C24 32, 22 38, 28 42"/><path fill="none" stroke="#D4961C" stroke-linecap="round" stroke-width="2.5" d="M32 48 C42 44, 44 38, 38 34 C44 36, 46 42, 40 46 C46 40, 42 30, 34 28 C40 32, 42 38, 36 42"/><circle cx="32" cy="10" r="4" fill="#F5C542"/><circle cx="32" cy="10" r="2" fill="#FFF8E1" opacity=".7"/></svg>